<svg width="234" height="51" viewBox="0 0 234 51" fill="none" xmlns="http://www.w3.org/2000/svg">
<path d="M0.522727 50V3.45454H19.75C23.2348 3.45454 26.2424 4.13636 28.7727 5.5C31.3182 6.84848 33.2803 8.73485 34.6591 11.1591C36.0379 13.5682 36.7273 16.3712 36.7273 19.5682C36.7273 22.7803 36.0227 25.5909 34.6136 28C33.2197 30.3939 31.2273 32.25 28.6364 33.5682C26.0455 34.8864 22.9697 35.5455 19.4091 35.5455H7.54545V26.6818H17.3182C19.0152 26.6818 20.4318 26.3864 21.5682 25.7955C22.7197 25.2045 23.5909 24.3788 24.1818 23.3182C24.7727 22.2424 25.0682 20.9924 25.0682 19.5682C25.0682 18.1288 24.7727 16.8864 24.1818 15.8409C23.5909 14.7803 22.7197 13.9621 21.5682 13.3864C20.4167 12.8106 19 12.5227 17.3182 12.5227H11.7727V50H0.522727ZM53.3864 30.0909V50H42.2727V3.45454H53.0227V21.5H53.4091C54.197 19.3485 55.4848 17.6667 57.2727 16.4545C59.0758 15.2424 61.2803 14.6364 63.8864 14.6364C66.3409 14.6364 68.4773 15.1818 70.2955 16.2727C72.1136 17.3485 73.5227 18.8712 74.5227 20.8409C75.5379 22.8106 76.0379 25.1136 76.0227 27.75V50H64.9091V29.9318C64.9242 27.9924 64.4394 26.4773 63.4545 25.3864C62.4697 24.2955 61.0833 23.75 59.2955 23.75C58.1288 23.75 57.0985 24.0076 56.2045 24.5227C55.3258 25.0227 54.6364 25.7424 54.1364 26.6818C53.6515 27.6212 53.4015 28.7576 53.3864 30.0909ZM99.2557 50.6591C95.589 50.6591 92.4375 49.9091 89.8011 48.4091C87.1799 46.8939 85.1572 44.7879 83.733 42.0909C82.3239 39.3788 81.6193 36.2348 81.6193 32.6591C81.6193 29.0682 82.3239 25.9242 83.733 23.2273C85.1572 20.5152 87.1799 18.4091 89.8011 16.9091C92.4375 15.3939 95.589 14.6364 99.2557 14.6364C102.922 14.6364 106.066 15.3939 108.688 16.9091C111.324 18.4091 113.347 20.5152 114.756 23.2273C116.18 25.9242 116.892 29.0682 116.892 32.6591C116.892 36.2348 116.18 39.3788 114.756 42.0909C113.347 44.7879 111.324 46.8939 108.688 48.4091C106.066 49.9091 102.922 50.6591 99.2557 50.6591ZM99.3239 42.2727C100.657 42.2727 101.786 41.8636 102.71 41.0455C103.634 40.2273 104.339 39.0909 104.824 37.6364C105.324 36.1818 105.574 34.5 105.574 32.5909C105.574 30.6515 105.324 28.9545 104.824 27.5C104.339 26.0455 103.634 24.9091 102.71 24.0909C101.786 23.2727 100.657 22.8636 99.3239 22.8636C97.9451 22.8636 96.7784 23.2727 95.8239 24.0909C94.8845 24.9091 94.1648 26.0455 93.6648 27.5C93.1799 28.9545 92.9375 30.6515 92.9375 32.5909C92.9375 34.5 93.1799 36.1818 93.6648 37.6364C94.1648 39.0909 94.8845 40.2273 95.8239 41.0455C96.7784 41.8636 97.9451 42.2727 99.3239 42.2727ZM122.585 50V3.45454H133.699V21.0682H133.926C134.381 20.0076 135.025 18.9848 135.858 18C136.706 17.0152 137.782 16.2121 139.085 15.5909C140.403 14.9545 141.979 14.6364 143.812 14.6364C146.237 14.6364 148.502 15.2727 150.608 16.5455C152.729 17.8182 154.441 19.7803 155.744 22.4318C157.047 25.0833 157.699 28.4621 157.699 32.5682C157.699 36.5227 157.07 39.8333 155.812 42.5C154.57 45.1667 152.888 47.1667 150.767 48.5C148.661 49.8333 146.32 50.5 143.744 50.5C141.987 50.5 140.464 50.2121 139.176 49.6364C137.888 49.0606 136.805 48.303 135.926 47.3636C135.062 46.4242 134.396 45.4167 133.926 44.3409H133.585V50H122.585ZM133.472 32.5455C133.472 34.4242 133.722 36.0606 134.222 37.4545C134.737 38.8485 135.472 39.9318 136.426 40.7045C137.396 41.4621 138.555 41.8409 139.903 41.8409C141.267 41.8409 142.426 41.4621 143.381 40.7045C144.335 39.9318 145.055 38.8485 145.54 37.4545C146.04 36.0606 146.29 34.4242 146.29 32.5455C146.29 30.6667 146.04 29.0379 145.54 27.6591C145.055 26.2803 144.335 25.2121 143.381 24.4545C142.441 23.697 141.282 23.3182 139.903 23.3182C138.54 23.3182 137.381 23.6894 136.426 24.4318C135.472 25.1742 134.737 26.2348 134.222 27.6136C133.722 28.9924 133.472 30.6364 133.472 32.5455ZM163.523 50V15.0909H174.636V50H163.523ZM169.091 11.0227C167.53 11.0227 166.189 10.5076 165.068 9.47727C163.947 8.43182 163.386 7.17424 163.386 5.70454C163.386 4.25 163.947 3.00757 165.068 1.97727C166.189 0.931816 167.53 0.409088 169.091 0.409088C170.667 0.409088 172.008 0.931816 173.114 1.97727C174.235 3.00757 174.795 4.25 174.795 5.70454C174.795 7.17424 174.235 8.43182 173.114 9.47727C172.008 10.5076 170.667 11.0227 169.091 11.0227ZM192.824 30.0909V50H181.71V15.0909H192.278V21.5H192.665C193.438 19.3636 194.756 17.6894 196.619 16.4773C198.483 15.25 200.703 14.6364 203.278 14.6364C205.733 14.6364 207.862 15.1894 209.665 16.2955C211.483 17.3864 212.892 18.9167 213.892 20.8864C214.907 22.8409 215.407 25.1288 215.392 27.75V50H204.278V29.9318C204.294 27.9924 203.801 26.4773 202.801 25.3864C201.816 24.2955 200.445 23.75 198.688 23.75C197.521 23.75 196.491 24.0076 195.597 24.5227C194.718 25.0227 194.036 25.7424 193.551 26.6818C193.081 27.6212 192.839 28.7576 192.824 30.0909ZM222.273 50V15.0909H233.386V50H222.273ZM227.841 11.0227C226.28 11.0227 224.939 10.5076 223.818 9.47727C222.697 8.43182 222.136 7.17424 222.136 5.70454C222.136 4.25 222.697 3.00757 223.818 1.97727C224.939 0.931816 226.28 0.409088 227.841 0.409088C229.417 0.409088 230.758 0.931816 231.864 1.97727C232.985 3.00757 233.545 4.25 233.545 5.70454C233.545 7.17424 232.985 8.43182 231.864 9.47727C230.758 10.5076 229.417 11.0227 227.841 11.0227Z" fill="#6D987E"/>
</svg>
