<svg width="201" height="59" viewBox="0 0 201 59" fill="none" xmlns="http://www.w3.org/2000/svg">
<path d="M96.0702 29.7757C96.0702 33.5781 95.3548 36.8348 93.9246 39.5458C92.5059 42.2454 90.5679 44.3132 88.1105 45.7491C85.6647 47.1851 82.8906 47.903 79.7876 47.903C76.6845 47.903 73.9043 47.1851 71.4469 45.7491C69.0017 44.3017 67.0637 42.2282 65.6329 39.5286C64.2142 36.8175 63.5049 33.5666 63.5049 29.7757C63.5049 25.9733 64.2142 22.7223 65.6329 20.0228C67.0637 17.3117 69.0017 15.2382 71.4469 13.8022C73.9043 12.3663 76.6845 11.6484 79.7876 11.6484C82.8906 11.6484 85.6647 12.3663 88.1105 13.8022C90.5679 15.2382 92.5059 17.3117 93.9246 20.0228C95.3548 22.7223 96.0702 25.9733 96.0702 29.7757ZM89.6161 29.7757C89.6161 27.0991 89.1947 24.8418 88.3531 23.0038C87.5225 21.1543 86.3685 19.7585 84.8918 18.8166C83.4155 17.8631 81.714 17.3864 79.7876 17.3864C77.8612 17.3864 76.1596 17.8631 74.6828 18.8166C73.2061 19.7585 72.0471 21.1543 71.2049 23.0038C70.3743 24.8418 69.9591 27.0991 69.9591 29.7757C69.9591 32.4523 70.3743 34.7153 71.2049 36.5648C72.0471 38.4028 73.2061 39.7986 74.6828 40.752C76.1596 41.694 77.8612 42.165 79.7876 42.165C81.714 42.165 83.4155 41.694 84.8918 40.752C86.3685 39.7986 87.5225 38.4028 88.3531 36.5648C89.1947 34.7153 89.6161 32.4523 89.6161 29.7757ZM111.726 47.8858C109.638 47.8858 107.769 47.3516 106.119 46.2833C104.47 45.2149 103.166 43.6641 102.209 41.6308C101.251 39.5975 100.772 37.1277 100.772 34.2214C100.772 31.2806 101.257 28.7993 102.226 26.7775C103.207 24.7442 104.527 23.2105 106.188 22.1767C107.849 21.1313 109.701 20.6086 111.743 20.6086C113.3 20.6086 114.581 20.8729 115.584 21.4013C116.588 21.9182 117.384 22.5443 117.973 23.2795C118.561 24.0032 119.016 24.6867 119.339 25.33H119.599V12.1308H125.88V47.4206H119.72V43.2506H119.339C119.016 43.8939 118.549 44.5774 117.938 45.3011C117.326 46.0133 116.519 46.6222 115.515 47.1276C114.512 47.6331 113.248 47.8858 111.726 47.8858ZM113.474 42.7681C114.8 42.7681 115.93 42.412 116.865 41.6998C117.799 40.976 118.509 39.9709 118.993 38.6843C119.478 37.3977 119.72 35.8986 119.72 34.1869C119.72 32.4753 119.478 30.9876 118.993 29.724C118.52 28.4604 117.816 27.4782 116.882 26.7775C115.959 26.0767 114.823 25.7263 113.474 25.7263C112.078 25.7263 110.913 26.0882 109.978 26.8119C109.044 27.5356 108.34 28.535 107.867 29.8102C107.394 31.0853 107.157 32.5442 107.157 34.1869C107.157 35.8411 107.394 37.3173 107.867 38.6153C108.352 39.902 109.061 40.9186 109.995 41.6653C110.941 42.4005 112.101 42.7681 113.474 42.7681ZM132.555 47.4206V20.9533H138.819V47.4206H132.555ZM135.704 17.1968C134.712 17.1968 133.859 16.8694 133.143 16.2146C132.428 15.5484 132.071 14.75 132.071 13.8195C132.071 12.8775 132.428 12.0791 133.143 11.4243C133.859 10.7581 134.712 10.4249 135.704 10.4249C136.708 10.4249 137.562 10.7581 138.265 11.4243C138.981 12.0791 139.338 12.8775 139.338 13.8195C139.338 14.75 138.981 15.5484 138.265 16.2146C137.562 16.8694 136.708 17.1968 135.704 17.1968ZM156.819 57.8972C154.57 57.8972 152.638 57.5928 151.022 56.9841C149.408 56.3864 148.11 55.5824 147.129 54.5715C146.149 53.5606 145.468 52.4406 145.087 51.2114L150.728 49.8502C150.982 50.3671 151.351 50.8783 151.836 51.3838C152.32 51.9007 152.972 52.3257 153.791 52.6589C154.622 53.0035 155.666 53.1758 156.923 53.1758C158.7 53.1758 160.17 52.7451 161.335 51.8835C162.5 51.0334 163.083 49.6319 163.083 47.6791V42.6647H162.772C162.449 43.308 161.976 43.9686 161.353 44.6463C160.741 45.3241 159.928 45.8927 158.913 46.3522C157.91 46.8117 156.646 47.0415 155.123 47.0415C153.082 47.0415 151.23 46.5647 149.569 45.6112C147.919 44.6463 146.604 43.2104 145.624 41.3034C144.655 39.385 144.17 36.9841 144.17 34.1007C144.17 31.1944 144.655 28.7418 145.624 26.743C146.604 24.7327 147.925 23.2105 149.586 22.1767C151.247 21.1313 153.099 20.6086 155.141 20.6086C156.698 20.6086 157.979 20.8729 158.982 21.4013C159.998 21.9182 160.805 22.5443 161.405 23.2795C162.005 24.0032 162.46 24.6867 162.772 25.33H163.118V20.9533H169.295V47.8513C169.295 50.1144 168.753 51.9869 167.669 53.4688C166.584 54.9507 165.102 56.0594 163.221 56.7944C161.342 57.5294 159.207 57.8972 156.819 57.8972ZM156.871 42.1478C158.198 42.1478 159.328 41.8261 160.263 41.1828C161.197 40.5395 161.906 39.6147 162.391 38.4086C162.875 37.2024 163.118 35.7549 163.118 34.0663C163.118 32.4006 162.875 30.9417 162.391 29.6895C161.918 28.4374 161.214 27.4667 160.28 26.7775C159.357 26.0767 158.221 25.7263 156.871 25.7263C155.475 25.7263 154.31 26.0882 153.376 26.8119C152.442 27.5356 151.738 28.5293 151.265 29.7929C150.792 31.0451 150.555 32.4695 150.555 34.0663C150.555 35.6861 150.792 37.1048 151.265 38.3224C151.749 39.5286 152.459 40.4706 153.393 41.1484C154.339 41.8146 155.499 42.1478 156.871 42.1478ZM183.363 47.9548C181.679 47.9548 180.162 47.6561 178.812 47.0587C177.474 46.4499 176.413 45.5538 175.629 44.3706C174.856 43.1874 174.469 41.7285 174.469 39.9938C174.469 38.5005 174.746 37.2656 175.3 36.2891C175.853 35.3127 176.609 34.5315 177.567 33.9457C178.524 33.3598 179.603 32.9175 180.802 32.6188C182.014 32.3087 183.265 32.0847 184.557 31.9468C186.114 31.786 187.377 31.6424 188.346 31.516C189.315 31.3782 190.019 31.1714 190.458 30.8957C190.907 30.6085 191.133 30.1663 191.133 29.5689V29.4655C191.133 28.1674 190.746 27.1623 189.973 26.45C189.2 25.7378 188.087 25.3817 186.634 25.3817C185.099 25.3817 183.882 25.7148 182.983 26.3812C182.094 27.0474 181.494 27.8343 181.183 28.7418L175.334 27.9147C175.796 26.3064 176.557 24.9624 177.618 23.8826C178.68 22.7913 179.977 21.9757 181.512 21.4357C183.046 20.8843 184.742 20.6086 186.599 20.6086C187.88 20.6086 189.154 20.758 190.423 21.0567C191.692 21.3554 192.851 21.8493 193.901 22.5385C194.951 23.2163 195.793 24.141 196.427 25.3128C197.074 26.4845 197.396 27.9492 197.396 29.7068V47.4206H191.375V43.7848H191.167C190.787 44.52 190.25 45.2092 189.558 45.8525C188.877 46.4843 188.018 46.9955 186.98 47.3861C185.953 47.7652 184.747 47.9548 183.363 47.9548ZM184.99 43.3712C186.247 43.3712 187.338 43.1242 188.26 42.6303C189.183 42.1248 189.892 41.4585 190.389 40.6314C190.896 39.8043 191.15 38.9026 191.15 37.9261V34.8072C190.954 34.9681 190.619 35.1174 190.146 35.2553C189.685 35.3931 189.166 35.5137 188.589 35.6171C188.012 35.7205 187.441 35.8124 186.876 35.8928C186.31 35.9732 185.82 36.0422 185.405 36.0996C184.47 36.2259 183.634 36.4327 182.896 36.7199C182.157 37.0071 181.575 37.4091 181.148 37.9261C180.722 38.4315 180.508 39.0863 180.508 39.8905C180.508 41.0392 180.929 41.9065 181.771 42.4924C182.613 43.0783 183.686 43.3712 184.99 43.3712Z" fill="#484848"/>
<path d="M52.0496 52.0749C52.0341 51.7998 52.0033 51.5258 51.9575 51.2541C50.5957 44.656 49.2265 38.0622 47.8501 31.4729C47.7234 30.7934 47.4031 30.1645 46.9274 29.6613C46.4517 29.1582 45.8407 28.8019 45.1673 28.6351C43.1114 28.0195 41.0555 27.4214 38.9996 26.8146C38.4516 26.6531 38.4516 26.6531 38.4516 27.2119C38.4516 33.225 38.4516 39.2381 38.4516 45.2512C38.4402 45.3859 38.4675 45.5211 38.5303 45.641C38.5932 45.7608 38.6891 45.8604 38.8067 45.9279C40.1481 46.8011 41.4763 47.7091 42.809 48.6041C44.8955 50.007 46.9821 51.4069 49.0687 52.8039C49.5555 53.1871 50.1288 53.4464 50.7389 53.5593C50.8758 53.5909 51.0177 53.594 51.1558 53.5683C51.294 53.5426 51.4252 53.4886 51.5414 53.4099C51.6576 53.3311 51.756 53.2292 51.8306 53.1107C51.9053 52.9921 51.9545 52.8594 51.9751 52.721C52.0112 52.5071 52.0361 52.2914 52.0496 52.0749ZM13.5922 36.2228V27.225C13.5922 26.6531 13.5922 26.6531 13.0574 26.7884L6.92038 28.5958C6.21727 28.7705 5.58027 29.145 5.08684 29.6735C4.59343 30.2022 4.26489 30.8621 4.14116 31.5733C2.80855 37.9764 1.48178 44.3795 0.160854 50.7826C0.0157836 51.3348 -0.0316828 51.908 0.0205788 52.4765C0.152087 53.3497 0.682503 53.7295 1.55922 53.5112C2.06287 53.3598 2.5361 53.1219 2.9576 52.8083C6.37679 50.5177 9.7975 48.2257 13.2196 45.9323C13.3429 45.86 13.4429 45.7543 13.5081 45.6275C13.5733 45.5007 13.6009 45.3581 13.5878 45.2163C13.5878 42.2213 13.5922 39.2308 13.5922 36.2228ZM24.8975 51.9614V51.3458C24.8975 48.316 24.8975 45.2861 24.8975 42.2563C24.9089 41.8756 24.7759 41.5046 24.5249 41.2172C21.3592 37.3779 18.5412 33.2667 16.104 28.932C16.0514 28.8316 16.0426 28.6919 15.898 28.6613C15.898 28.6875 15.8498 28.7093 15.8498 28.7312C15.8498 34.2844 15.8498 39.8377 15.8498 45.3909C15.845 45.4962 15.87 45.6007 15.9219 45.6925C15.9739 45.7844 16.0506 45.8599 16.1435 45.9104C18.1395 47.2813 20.1311 48.6565 22.1183 50.0361L24.8975 51.9614ZM27.1463 51.8566C27.3655 51.8566 27.4619 51.7387 27.5847 51.6558C30.2981 49.7829 33.0072 47.8969 35.7294 46.037C35.8818 45.9491 36.007 45.8212 36.0913 45.6672C36.1756 45.5132 36.2157 45.3391 36.2072 45.1639C36.2072 39.7969 36.2072 34.4285 36.2072 29.0586C36.2425 28.911 36.2222 28.7557 36.1503 28.622C36.1074 28.6733 36.0679 28.7273 36.0319 28.7836C33.5537 33.2212 30.6733 37.424 27.4269 41.3395C27.2462 41.5477 27.1493 41.8152 27.1551 42.0904C27.1551 45.2279 27.1551 48.3654 27.1551 51.503L27.1463 51.8566Z" fill="#FDFDFD"/>
<path d="M26.0066 5.51408C27.58 5.51313 29.1337 5.86146 30.555 6.53378C31.9762 7.20611 33.229 8.18545 34.2224 9.40058C35.2158 10.6158 35.9247 12.0361 36.2976 13.5584C36.6706 15.0807 36.698 16.6667 36.3782 18.201C35.7777 21.257 34.4932 24.0467 33.0291 26.7666C31.0647 30.3434 28.8206 33.7607 26.3178 36.9868C26.1556 37.2007 26.0548 37.4234 25.7698 37.0523C22.5084 32.7433 19.5189 28.2684 17.327 23.3089C16.4132 21.354 15.8013 19.2728 15.5122 17.1357C15.2295 14.4345 16.0043 11.7289 17.6751 9.58254C19.3459 7.43621 21.784 6.01481 24.4811 5.61449C24.9867 5.54617 25.4964 5.5126 26.0066 5.51408ZM26.0329 9.94531C24.816 9.9393 23.6247 10.2937 22.6105 10.9636C21.5963 11.6334 20.8049 12.5885 20.337 13.7073C19.8691 14.8262 19.7458 16.0583 19.9827 17.2471C20.2196 18.4359 20.806 19.5277 21.6675 20.3838C22.5289 21.2399 23.6265 21.8216 24.8207 22.055C26.0149 22.2884 27.2518 22.1629 28.3742 21.6945C29.4965 21.2261 30.4538 20.4359 31.1242 19.4244C31.7946 18.4129 32.1479 17.2257 32.1392 16.0137C32.1277 14.4055 31.4802 12.8667 30.3372 11.7307C29.1942 10.5948 27.6476 9.9533 26.0329 9.94531Z" fill="#6D987E"/>
<path d="M52.0496 52.0749C52.0332 52.2915 52.0053 52.5072 51.9663 52.721C51.9457 52.8594 51.8965 52.9921 51.8219 53.1107C51.7473 53.2292 51.6487 53.3312 51.5326 53.4099C51.4165 53.4886 51.2852 53.5426 51.1471 53.5683C51.009 53.594 50.867 53.5909 50.7301 53.5592C50.12 53.4464 49.5468 53.1871 49.0599 52.804C46.9675 51.4069 44.8809 50.007 42.8002 48.6041C41.4851 47.7309 40.1393 46.8098 38.7979 45.9279C38.6803 45.8604 38.5845 45.7608 38.5216 45.641C38.4587 45.5211 38.4314 45.3859 38.4429 45.2512C38.4429 39.2381 38.4429 33.225 38.4429 27.2119C38.4429 26.6531 38.4429 26.6531 38.9908 26.8146C41.0467 27.4214 43.1026 28.0195 45.1586 28.6351C45.832 28.8019 46.443 29.1582 46.9187 29.6613C47.3944 30.1646 47.7146 30.7934 47.8413 31.4729C49.2266 38.0594 50.5957 44.6531 51.9488 51.2541C51.9975 51.5256 52.0311 51.7996 52.0496 52.0749Z" fill="#6D987E"/>
<path d="M13.5921 36.2228C13.5921 39.2221 13.5921 42.2213 13.5921 45.2206C13.6053 45.3625 13.5776 45.5051 13.5125 45.6319C13.4472 45.7586 13.3472 45.8643 13.2239 45.9366C9.80764 48.2214 6.38992 50.5134 2.97069 52.8127C2.54919 53.1262 2.07596 53.3641 1.57232 53.5156C0.695593 53.7339 0.165179 53.3715 0.0336709 52.4809C-0.0185907 51.9124 0.0288756 51.3393 0.173946 50.787C1.49779 44.3839 2.82457 37.9808 4.15426 31.5776C4.27798 30.8665 4.60653 30.2065 5.09993 29.6779C5.59334 29.1493 6.23034 28.7749 6.93345 28.6002L13.0705 26.7928C13.6009 26.6356 13.6053 26.6356 13.6053 27.2293L13.5921 36.2228Z" fill="#6D987E"/>
<path d="M24.8975 51.9614L22.1139 50.0361C20.1354 48.6535 18.1438 47.2784 16.1391 45.9104C16.0462 45.8599 15.9695 45.7844 15.9175 45.6925C15.8656 45.6007 15.8406 45.4962 15.8454 45.3909C15.8454 39.8376 15.8454 34.2844 15.8454 28.7312C15.8454 28.7312 15.8761 28.6875 15.8936 28.6613C16.0383 28.6919 16.047 28.8316 16.0996 28.932C18.5396 33.2671 21.3605 37.3782 24.5293 41.2172C24.7802 41.5046 24.9133 41.8756 24.9019 42.2563C24.9019 45.2861 24.9019 48.316 24.9019 51.3458L24.8975 51.9614Z" fill="#6D987E"/>
<path d="M27.1464 51.8566V51.503C27.1464 48.3654 27.1464 45.2279 27.1464 42.0904C27.1406 41.8152 27.2374 41.5477 27.4181 41.3395C30.6646 37.424 33.5449 33.2212 36.0231 28.7836C36.0591 28.7273 36.0987 28.6733 36.1415 28.622C36.2135 28.7557 36.2338 28.911 36.1985 29.0586C36.1985 34.4285 36.1985 39.7969 36.1985 45.1639C36.2069 45.3391 36.1668 45.5132 36.0825 45.6672C35.9982 45.8212 35.8731 45.9491 35.7206 46.037C32.9984 47.8969 30.2894 49.7829 27.5759 51.6558C27.4751 51.7387 27.3655 51.8915 27.1464 51.8566Z" fill="#6D987E"/>
</svg>
