<svg width="18" height="18" viewBox="0 0 18 18" fill="none" xmlns="http://www.w3.org/2000/svg">
<path fill-rule="evenodd" clip-rule="evenodd" d="M10.9635 12.4457C8.31325 14.5684 4.43381 14.4013 1.97703 11.9445C-0.65901 9.3085 -0.65901 5.03464 1.97703 2.3986C4.61307 -0.23744 8.88693 -0.23744 11.523 2.3986C13.9798 4.85538 14.1468 8.73481 12.0242 11.3851L17.1798 16.5407C17.4727 16.8336 17.4727 17.3085 17.1798 17.6014C16.8869 17.8943 16.412 17.8943 16.1191 17.6014L10.9635 12.4457ZM3.03769 10.8839C0.987437 8.83363 0.987437 5.50951 3.03769 3.45926C5.08794 1.40901 8.41206 1.40901 10.4623 3.45926C12.5111 5.50801 12.5126 8.82875 10.4668 10.8794C10.4653 10.8809 10.4638 10.8823 10.4623 10.8839C10.4608 10.8854 10.4593 10.8869 10.4578 10.8884C8.40719 12.9341 5.08644 12.9326 3.03769 10.8839Z" fill="#949494"/>
</svg>
