<svg width="28" height="28" viewBox="0 0 28 28" fill="none" xmlns="http://www.w3.org/2000/svg">
<circle cx="14" cy="14" r="14" fill="#EC6A56"/>
<path d="M14 9.33333L14.7071 8.62622L14 7.91911L13.2929 8.62622L14 9.33333ZM13 17.3333C13 17.8856 13.4477 18.3333 14 18.3333C14.5523 18.3333 15 17.8856 15 17.3333L13 17.3333ZM18.7071 12.6262L14.7071 8.62622L13.2929 10.0404L17.2929 14.0404L18.7071 12.6262ZM13.2929 8.62622L9.29289 12.6262L10.7071 14.0404L14.7071 10.0404L13.2929 8.62622ZM13 9.33333L13 17.3333L15 17.3333L15 9.33333L13 9.33333Z" fill="white"/>
<path d="M9.33337 20L18.6667 20" stroke="white" stroke-width="2"/>
</svg>
